# xmcd CD database file
#
# Track frame offsets:
#	150
#	21247
#	41902
#	61874
#	80284
#	105999
#	131491
#	151729
#
# Disc length: 2330 seconds
#
# Revision: 3
# Processed by: cddbd v1.5.1PL2 Copyright (c) Steve Scherf et al.
# Submitted via: CDex 1.51
#
DISCID=57091808
DTITLE=Peter Malick Group ft Norah Jones - The Chill Album
DYEAR=2005
DGENRE=Jazz
TTITLE0=Things You Don't Have To Do (DJ Strobe Loungin' In Ibiza Remix)
TTITLE1=Strange Transmissions (Chillout Remix)
TTITLE2=Deceptively Yours (DJ Strobe 7 Below Zero Remix)
TTITLE3=New York City (DJ Strobe Brooklyn Broken Beat Remix)
TTITLE4=Things You Don't Have To Do (Sunrise Remix)
TTITLE5=Strange Transmissions (DJ Strobe 'Stand Under My Havianas' Bossanova Remix)
TTITLE6=Deceptively Yours (DJ Strobe Seedy Motel Sunset Remix)
TTITLE7=New York City (Lazy Sunday In Prospect Park Remix)
EXTD=YEAR: 2005
EXTT0=
EXTT1=
EXTT2=
EXTT3=
EXTT4=
EXTT5=
EXTT6=
EXTT7=
PLAYORDER=
